<svg width="32" height="32" viewBox="0 0 32 32" fill="none" xmlns="http://www.w3.org/2000/svg">
<path d="M16.7706 10.1973L18.8332 12.2509C18.8109 12.4289 18.7632 12.6742 18.6632 12.9813C18.3852 13.8349 17.6869 15.2155 15.9248 16.9776C14.1707 18.7317 12.8058 19.3751 11.9759 19.6105C11.6561 19.7012 11.4063 19.7341 11.2323 19.744L9.22607 17.7378C8.44502 16.9567 7.17869 16.9567 6.39764 17.7378L3.56921 20.5662C2.78816 21.3472 2.78816 22.6136 3.56921 23.3946L6.36447 26.1899C6.98767 26.8131 7.94534 27.138 8.90314 26.8316C10.5844 26.2938 14.5851 24.6352 19.1256 20.0948C23.666 15.5543 25.3246 11.5536 25.8624 9.87236C26.1687 8.91455 25.8439 7.95688 25.2206 7.33368L22.4254 4.53842C21.6443 3.75738 20.378 3.75737 19.597 4.53842L16.7685 7.36685C15.9875 8.1479 15.9875 9.41423 16.7685 10.1953L16.7706 10.1973Z" fill="#4F4F4F"/>
</svg>
