<svg width="54" height="46" viewBox="0 0 54 46" fill="none" xmlns="http://www.w3.org/2000/svg">
<rect width="54" height="46" rx="5" fill="#00C6BF"/>
<path d="M30.4996 25.0001H29.7096L29.4296 24.7301C30.6296 23.3301 31.2496 21.4201 30.9096 19.3901C30.4396 16.6101 28.1196 14.3901 25.3196 14.0501C21.0896 13.5301 17.5296 17.0901 18.0496 21.3201C18.3896 24.1201 20.6096 26.4401 23.3896 26.9101C25.4196 27.2501 27.3296 26.6301 28.7296 25.4301L28.9996 25.7101V26.5001L33.2496 30.7501C33.6596 31.1601 34.3296 31.1601 34.7396 30.7501C35.1496 30.3401 35.1496 29.6701 34.7396 29.2601L30.4996 25.0001ZM24.4996 25.0001C22.0096 25.0001 19.9996 22.9901 19.9996 20.5001C19.9996 18.0101 22.0096 16.0001 24.4996 16.0001C26.9896 16.0001 28.9996 18.0101 28.9996 20.5001C28.9996 22.9901 26.9896 25.0001 24.4996 25.0001Z" fill="white"/>
</svg>
