<svg width="26" height="26" viewBox="0 0 26 26" fill="none" xmlns="http://www.w3.org/2000/svg">
<rect width="26" height="26" rx="5.2" fill="#25D366"/>
<path d="M16.2492 14.43C16.0542 14.365 15.2092 13.91 15.0142 13.845C14.8192 13.78 14.7542 13.78 14.6242 13.91C14.4454 14.1611 14.2499 14.3999 14.0392 14.625C13.9092 14.755 13.8442 14.755 13.6492 14.69C13.1058 14.5071 12.6151 14.1948 12.2192 13.78C11.8163 13.4364 11.4849 13.0167 11.2442 12.545C11.1142 12.35 11.2442 12.285 11.3092 12.155C11.4114 12.06 11.499 11.9505 11.5692 11.83C11.6342 11.7 11.6992 11.635 11.7642 11.505C11.8292 11.375 11.7642 11.31 11.7642 11.18C11.7642 11.05 11.3742 10.205 11.1792 9.87997C10.9842 9.55497 10.9192 9.55497 10.7892 9.55497H10.4642C10.2939 9.56257 10.1322 9.63188 10.0092 9.74997C9.79555 9.93433 9.62615 10.1645 9.51362 10.4233C9.40109 10.6821 9.34832 10.963 9.35924 11.245C9.41881 11.9095 9.66686 12.5431 10.0742 13.0715C10.8126 14.2413 11.8767 15.1698 13.1357 15.743C13.5907 15.938 13.9157 16.003 14.1757 16.133C14.5327 16.2475 14.9128 16.2698 15.2807 16.198C15.7768 16.0655 16.2126 15.7674 16.5157 15.353C16.5979 15.0787 16.6416 14.7943 16.6457 14.508C16.513 14.5091 16.381 14.4871 16.2557 14.443L16.2492 14.43ZM12.9992 18.85C11.9194 18.8629 10.858 18.57 9.93774 18.005L9.74274 17.875L7.46124 18.46L8.05274 16.25L7.92274 16.055C7.32856 15.0964 7.01343 13.9912 7.01274 12.8635C7.01145 11.6776 7.36201 10.518 8.02003 9.5315C8.67806 8.54496 9.61397 7.77581 10.7093 7.32141C11.8047 6.86701 13.0102 6.74778 14.1733 6.97881C15.3365 7.20985 16.4049 7.78076 17.2434 8.61929C18.082 9.45781 18.6529 10.5263 18.8839 11.6894C19.1149 12.8525 18.9957 14.0581 18.5413 15.1534C18.0869 16.2487 17.3178 17.1847 16.3312 17.8427C15.3447 18.5007 14.1851 18.8513 12.9992 18.85ZM18.0757 7.85197C16.7109 6.53638 14.8948 5.79227 12.9992 5.77197C11.1029 5.77197 9.28431 6.52527 7.94343 7.86616C6.60254 9.20704 5.84924 11.0257 5.84924 12.922C5.84892 14.1814 6.18556 15.418 6.82424 16.5035L5.77124 20.228L9.61274 19.253C10.6706 19.829 11.8599 20.1202 13.0642 20.098C14.0032 20.098 14.9329 19.913 15.8004 19.5537C16.6679 19.1944 17.4561 18.6677 18.1201 18.0038C18.784 17.3398 19.3107 16.5516 19.67 15.6842C20.0293 14.8167 20.2142 13.8869 20.2142 12.948C20.1682 11.0439 19.3989 9.22877 18.0627 7.87147" fill="#FBFBFD"/>
</svg>
