<svg width="26" height="26" viewBox="0 0 26 26" fill="none" xmlns="http://www.w3.org/2000/svg">
<rect width="26" height="26" rx="5.2" fill="#2787F5"/>
<path fill-rule="evenodd" clip-rule="evenodd" d="M6.85693 6.85706C5.84998 7.85806 5.84998 9.47872 5.84998 12.7141V13.2861C5.84998 16.5215 5.84998 18.1421 6.85693 19.1431C7.85793 20.1501 9.4786 20.1501 12.714 20.1501H13.286C16.5213 20.1501 18.142 20.1501 19.143 19.1431C20.15 18.1421 20.15 16.5215 20.15 13.2861V12.7141C20.15 9.47872 20.15 7.85806 19.143 6.85706C18.142 5.8501 16.5213 5.8501 13.286 5.8501H12.714C9.4786 5.8501 7.85793 5.8501 6.85693 6.85706ZM8.26409 10.1997C8.34155 13.9177 10.2006 16.1521 13.4598 16.1521H13.6445V14.025C14.2194 14.0974 14.7601 14.3378 15.1989 14.7162C15.6377 15.0946 15.9551 15.5941 16.1112 16.1521H17.8034C17.6294 15.5097 17.3212 14.9115 16.8991 14.3969C16.477 13.8823 15.9505 13.4631 15.3545 13.167C15.8885 12.8429 16.3498 12.412 16.7097 11.9015C17.0695 11.3909 17.3201 10.8116 17.4459 10.1997H15.9086C15.575 11.3795 14.5859 12.452 13.6445 12.5533V10.1997H12.1072V14.3229C11.1539 14.0846 9.9503 12.9286 9.89668 10.1997H8.26409Z" fill="#FBFBFD"/>
</svg>
